<svg id="visual" viewBox="0 0 900 600" width="900" height="600"
    xmlns="http://www.w3.org/2000/svg"
    xmlns:xlink="http://www.w3.org/1999/xlink" version="1.1">
    <g transform="translate(396.28794673004336 309.9456617059767)">
        <path
        id="blob1" d="M173.5 -164.8C223.5 -123.5 261.8 -61.8 253.9 -7.9C246 46 191.9 91.9 141.9 131.6C91.9 171.3 46 204.6 5.3 199.3C-35.4 194 -70.7 150 -97.7 110.4C-124.7 70.7 -143.4 35.4 -146.9 -3.5C-150.4 -42.4 -138.9 -84.9 -111.9 -126.2C-84.9 -167.5 -42.4 -207.8 9.7 -217.4C61.8 -227.1 123.5 -206.2 173.5 -164.8" fill="#BB004B">

        </path>
    </g>

    <g transform="translate(443.5386549348433 319.1303983824821)">
        <path 
        id="blob2" d="M177.5 -166.7C226.4 -128.7 259.7 -64.3 261.2 1.5C262.7 67.4 232.5 134.8 183.7 159.8C134.8 184.8 67.4 167.4 -1.6 169.1C-70.7 170.7 -141.4 191.4 -186.4 166.4C-231.4 141.4 -250.7 70.7 -248.1 2.6C-245.5 -65.5 -221.1 -131.1 -176.1 -169.1C-131.1 -207.1 -65.5 -217.5 -0.6 -216.9C64.3 -216.3 128.7 -204.7 177.5 -166.7" fill="#BB004B"></path>
    </g>
</svg>