<svg id="visual" viewBox="0 0 1200 800" width="1200" height="800"
    xmlns="http://www.w3.org/2000/svg"
    xmlns:xlink="http://www.w3.org/1999/xlink" version="1.1">
    <path d="M0 517L22.2 518.7C44.3 520.3 88.7 523.7 133.2 526.3C177.7 529 222.3 531 266.8 543C311.3 555 355.7 577 400 577.7C444.3 578.3 488.7 557.7 533.2 544.8C577.7 532 622.3 527 666.8 526.8C711.3 526.7 755.7 531.3 800 532.3C844.3 533.3 888.7 530.7 933.2 540C977.7 549.3 1022.3 570.7 1066.8 571.8C1111.3 573 1155.7 554 1177.8 544.5L1200 535L1200 801L1177.8 801C1155.7 801 1111.3 801 1066.8 801C1022.3 801 977.7 801 933.2 801C888.7 801 844.3 801 800 801C755.7 801 711.3 801 666.8 801C622.3 801 577.7 801 533.2 801C488.7 801 444.3 801 400 801C355.7 801 311.3 801 266.8 801C222.3 801 177.7 801 133.2 801C88.7 801 44.3 801 22.2 801L0 801Z" fill="#fa7268"></path>
    <path d="M0 636L22.2 632.7C44.3 629.3 88.7 622.7 133.2 615.3C177.7 608 222.3 600 266.8 591.2C311.3 582.3 355.7 572.7 400 579.2C444.3 585.7 488.7 608.3 533.2 609.8C577.7 611.3 622.3 591.7 666.8 587.5C711.3 583.3 755.7 594.7 800 601.2C844.3 607.7 888.7 609.3 933.2 607.8C977.7 606.3 1022.3 601.7 1066.8 603.2C1111.3 604.7 1155.7 612.3 1177.8 616.2L1200 620L1200 801L1177.8 801C1155.7 801 1111.3 801 1066.8 801C1022.3 801 977.7 801 933.2 801C888.7 801 844.3 801 800 801C755.7 801 711.3 801 666.8 801C622.3 801 577.7 801 533.2 801C488.7 801 444.3 801 400 801C355.7 801 311.3 801 266.8 801C222.3 801 177.7 801 133.2 801C88.7 801 44.3 801 22.2 801L0 801Z" fill="#ef5f67"></path>
    <path d="M0 651L22.2 649.7C44.3 648.3 88.7 645.7 133.2 640.8C177.7 636 222.3 629 266.8 633.7C311.3 638.3 355.7 654.7 400 653C444.3 651.3 488.7 631.7 533.2 632.5C577.7 633.3 622.3 654.7 666.8 661.7C711.3 668.7 755.7 661.3 800 660.2C844.3 659 888.7 664 933.2 661.3C977.7 658.7 1022.3 648.3 1066.8 644.8C1111.3 641.3 1155.7 644.7 1177.8 646.3L1200 648L1200 801L1177.8 801C1155.7 801 1111.3 801 1066.8 801C1022.3 801 977.7 801 933.2 801C888.7 801 844.3 801 800 801C755.7 801 711.3 801 666.8 801C622.3 801 577.7 801 533.2 801C488.7 801 444.3 801 400 801C355.7 801 311.3 801 266.8 801C222.3 801 177.7 801 133.2 801C88.7 801 44.3 801 22.2 801L0 801Z" fill="#e34c67"></path>
    <path d="M0 706L22.2 702.3C44.3 698.7 88.7 691.3 133.2 692C177.7 692.7 222.3 701.3 266.8 699.3C311.3 697.3 355.7 684.7 400 677.7C444.3 670.7 488.7 669.3 533.2 669.3C577.7 669.3 622.3 670.7 666.8 677.8C711.3 685 755.7 698 800 701.8C844.3 705.7 888.7 700.3 933.2 692.7C977.7 685 1022.3 675 1066.8 677.7C1111.3 680.3 1155.7 695.7 1177.8 703.3L1200 711L1200 801L1177.8 801C1155.7 801 1111.3 801 1066.8 801C1022.3 801 977.7 801 933.2 801C888.7 801 844.3 801 800 801C755.7 801 711.3 801 666.8 801C622.3 801 577.7 801 533.2 801C488.7 801 444.3 801 400 801C355.7 801 311.3 801 266.8 801C222.3 801 177.7 801 133.2 801C88.7 801 44.3 801 22.2 801L0 801Z" fill="#d53867"></path>
    <path d="M0 744L22.2 745.2C44.3 746.3 88.7 748.7 133.2 744.5C177.7 740.3 222.3 729.7 266.8 726.2C311.3 722.7 355.7 726.3 400 728.5C444.3 730.7 488.7 731.3 533.2 732.8C577.7 734.3 622.3 736.7 666.8 737.3C711.3 738 755.7 737 800 738.7C844.3 740.3 888.7 744.7 933.2 747.3C977.7 750 1022.3 751 1066.8 747.5C1111.3 744 1155.7 736 1177.8 732L1200 728L1200 801L1177.8 801C1155.7 801 1111.3 801 1066.8 801C1022.3 801 977.7 801 933.2 801C888.7 801 844.3 801 800 801C755.7 801 711.3 801 666.8 801C622.3 801 577.7 801 533.2 801C488.7 801 444.3 801 400 801C355.7 801 311.3 801 266.8 801C222.3 801 177.7 801 133.2 801C88.7 801 44.3 801 22.2 801L0 801Z" fill="#c62368"></path>
</svg>