<svg id="visual" viewBox="0 0 900 900" width="900" height="900"
    xmlns="http://www.w3.org/2000/svg"
    xmlns:xlink="http://www.w3.org/1999/xlink" version="1.1">
    <path d="M0 491L21.5 500.2C43 509.3 86 527.7 128.8 547C171.7 566.3 214.3 586.7 257.2 578.5C300 570.3 343 533.7 385.8 529.2C428.7 524.7 471.3 552.3 514.2 570.5C557 588.7 600 597.3 642.8 582C685.7 566.7 728.3 527.3 771.2 517.3C814 507.3 857 526.7 878.5 536.3L900 546L900 901L878.5 901C857 901 814 901 771.2 901C728.3 901 685.7 901 642.8 901C600 901 557 901 514.2 901C471.3 901 428.7 901 385.8 901C343 901 300 901 257.2 901C214.3 901 171.7 901 128.8 901C86 901 43 901 21.5 901L0 901Z" fill="#fa7268"></path>
    <path d="M0 611L21.5 617.5C43 624 86 637 128.8 639.7C171.7 642.3 214.3 634.7 257.2 632.8C300 631 343 635 385.8 622.5C428.7 610 471.3 581 514.2 582.7C557 584.3 600 616.7 642.8 616C685.7 615.3 728.3 581.7 771.2 571.2C814 560.7 857 573.3 878.5 579.7L900 586L900 901L878.5 901C857 901 814 901 771.2 901C728.3 901 685.7 901 642.8 901C600 901 557 901 514.2 901C471.3 901 428.7 901 385.8 901C343 901 300 901 257.2 901C214.3 901 171.7 901 128.8 901C86 901 43 901 21.5 901L0 901Z" fill="#ef5f67"></path>
    <path d="M0 726L21.5 719.2C43 712.3 86 698.7 128.8 686.7C171.7 674.7 214.3 664.3 257.2 655.2C300 646 343 638 385.8 640.3C428.7 642.7 471.3 655.3 514.2 662.8C557 670.3 600 672.7 642.8 682.3C685.7 692 728.3 709 771.2 701.8C814 694.7 857 663.3 878.5 647.7L900 632L900 901L878.5 901C857 901 814 901 771.2 901C728.3 901 685.7 901 642.8 901C600 901 557 901 514.2 901C471.3 901 428.7 901 385.8 901C343 901 300 901 257.2 901C214.3 901 171.7 901 128.8 901C86 901 43 901 21.5 901L0 901Z" fill="#e34c67"></path>
    <path d="M0 714L21.5 717.3C43 720.7 86 727.3 128.8 727.3C171.7 727.3 214.3 720.7 257.2 729.3C300 738 343 762 385.8 767C428.7 772 471.3 758 514.2 751.5C557 745 600 746 642.8 738.2C685.7 730.3 728.3 713.7 771.2 717.3C814 721 857 745 878.5 757L900 769L900 901L878.5 901C857 901 814 901 771.2 901C728.3 901 685.7 901 642.8 901C600 901 557 901 514.2 901C471.3 901 428.7 901 385.8 901C343 901 300 901 257.2 901C214.3 901 171.7 901 128.8 901C86 901 43 901 21.5 901L0 901Z" fill="#d53867"></path>
    <path d="M0 811L21.5 808.7C43 806.3 86 801.7 128.8 799.8C171.7 798 214.3 799 257.2 800.7C300 802.3 343 804.7 385.8 804.2C428.7 803.7 471.3 800.3 514.2 800C557 799.7 600 802.3 642.8 803.5C685.7 804.7 728.3 804.3 771.2 800.3C814 796.3 857 788.7 878.5 784.8L900 781L900 901L878.5 901C857 901 814 901 771.2 901C728.3 901 685.7 901 642.8 901C600 901 557 901 514.2 901C471.3 901 428.7 901 385.8 901C343 901 300 901 257.2 901C214.3 901 171.7 901 128.8 901C86 901 43 901 21.5 901L0 901Z" fill="#c62368"></path>
</svg>