<svg id="visual" viewBox="0 0 1200 800" width="1200" height="800"
    xmlns="http://www.w3.org/2000/svg"
    xmlns:xlink="http://www.w3.org/1999/xlink" version="1.1">
    <path d="M0 570L22.2 565.8C44.3 561.7 88.7 553.3 133.2 549.7C177.7 546 222.3 547 266.8 550.8C311.3 554.7 355.7 561.3 400 570.7C444.3 580 488.7 592 533.2 591.2C577.7 590.3 622.3 576.7 666.8 568.3C711.3 560 755.7 557 800 562.7C844.3 568.3 888.7 582.7 933.2 576.7C977.7 570.7 1022.3 544.3 1066.8 536C1111.3 527.7 1155.7 537.3 1177.8 542.2L1200 547L1200 801L1177.8 801C1155.7 801 1111.3 801 1066.8 801C1022.3 801 977.7 801 933.2 801C888.7 801 844.3 801 800 801C755.7 801 711.3 801 666.8 801C622.3 801 577.7 801 533.2 801C488.7 801 444.3 801 400 801C355.7 801 311.3 801 266.8 801C222.3 801 177.7 801 133.2 801C88.7 801 44.3 801 22.2 801L0 801Z" fill="#fa7268"></path>
    <path d="M0 636L22.2 627.2C44.3 618.3 88.7 600.7 133.2 590.5C177.7 580.3 222.3 577.7 266.8 584C311.3 590.3 355.7 605.7 400 616C444.3 626.3 488.7 631.7 533.2 624C577.7 616.3 622.3 595.7 666.8 592.3C711.3 589 755.7 603 800 612.2C844.3 621.3 888.7 625.7 933.2 623.3C977.7 621 1022.3 612 1066.8 611.7C1111.3 611.3 1155.7 619.7 1177.8 623.8L1200 628L1200 801L1177.8 801C1155.7 801 1111.3 801 1066.8 801C1022.3 801 977.7 801 933.2 801C888.7 801 844.3 801 800 801C755.7 801 711.3 801 666.8 801C622.3 801 577.7 801 533.2 801C488.7 801 444.3 801 400 801C355.7 801 311.3 801 266.8 801C222.3 801 177.7 801 133.2 801C88.7 801 44.3 801 22.2 801L0 801Z" fill="#ef5f67"></path>
    <path d="M0 645L22.2 643.5C44.3 642 88.7 639 133.2 635.5C177.7 632 222.3 628 266.8 624.8C311.3 621.7 355.7 619.3 400 622.7C444.3 626 488.7 635 533.2 636.8C577.7 638.7 622.3 633.3 666.8 633C711.3 632.7 755.7 637.3 800 636.2C844.3 635 888.7 628 933.2 624.5C977.7 621 1022.3 621 1066.8 621.3C1111.3 621.7 1155.7 622.3 1177.8 622.7L1200 623L1200 801L1177.8 801C1155.7 801 1111.3 801 1066.8 801C1022.3 801 977.7 801 933.2 801C888.7 801 844.3 801 800 801C755.7 801 711.3 801 666.8 801C622.3 801 577.7 801 533.2 801C488.7 801 444.3 801 400 801C355.7 801 311.3 801 266.8 801C222.3 801 177.7 801 133.2 801C88.7 801 44.3 801 22.2 801L0 801Z" fill="#e34c67"></path>
    <path d="M0 706L22.2 704C44.3 702 88.7 698 133.2 696C177.7 694 222.3 694 266.8 694.7C311.3 695.3 355.7 696.7 400 691.8C444.3 687 488.7 676 533.2 675.2C577.7 674.3 622.3 683.7 666.8 688.3C711.3 693 755.7 693 800 694.7C844.3 696.3 888.7 699.7 933.2 700.7C977.7 701.7 1022.3 700.3 1066.8 693.5C1111.3 686.7 1155.7 674.3 1177.8 668.2L1200 662L1200 801L1177.8 801C1155.7 801 1111.3 801 1066.8 801C1022.3 801 977.7 801 933.2 801C888.7 801 844.3 801 800 801C755.7 801 711.3 801 666.8 801C622.3 801 577.7 801 533.2 801C488.7 801 444.3 801 400 801C355.7 801 311.3 801 266.8 801C222.3 801 177.7 801 133.2 801C88.7 801 44.3 801 22.2 801L0 801Z" fill="#d53867"></path>
    <path d="M0 747L22.2 743.3C44.3 739.7 88.7 732.3 133.2 726.7C177.7 721 222.3 717 266.8 719C311.3 721 355.7 729 400 733C444.3 737 488.7 737 533.2 738.8C577.7 740.7 622.3 744.3 666.8 741.7C711.3 739 755.7 730 800 730.3C844.3 730.7 888.7 740.3 933.2 744.5C977.7 748.7 1022.3 747.3 1066.8 741.7C1111.3 736 1155.7 726 1177.8 721L1200 716L1200 801L1177.8 801C1155.7 801 1111.3 801 1066.8 801C1022.3 801 977.7 801 933.2 801C888.7 801 844.3 801 800 801C755.7 801 711.3 801 666.8 801C622.3 801 577.7 801 533.2 801C488.7 801 444.3 801 400 801C355.7 801 311.3 801 266.8 801C222.3 801 177.7 801 133.2 801C88.7 801 44.3 801 22.2 801L0 801Z" fill="#c62368"></path>
</svg>